<?xml version="1.0" encoding="utf-8"?>
<!-- Generator: Adobe Illustrator 24.2.3, SVG Export Plug-In . SVG Version: 6.00 Build 0)  -->
<svg version="1.1" id="Layer_1" xmlns="http://www.w3.org/2000/svg" xmlns:xlink="http://www.w3.org/1999/xlink" x="0px" y="0px"
	 viewBox="0 0 199.4 76.3" style="enable-background:new 0 0 199.4 76.3;" xml:space="preserve">
<style type="text/css">
	.st0{fill:#666666;}
	.st1{fill:#FBB03B;}
</style>
<text transform="matrix(1 0 0 1 306 267.2353)"><tspan x="0" y="0" style="font-family:'MyriadPro-Regular'; font-size:12px;">$(document).ready(function() {</tspan><tspan x="0" y="14.4" style="font-family:'MyriadPro-Regular'; font-size:12px;">        var typed = new Typed(&apos;.element&apos;, {</tspan><tspan x="0" y="28.8" style="font-family:'MyriadPro-Regular'; font-size:12px;">            strings: [&quot;Watch-Learn&quot;, &quot;Virtual Classes&quot;, &quot;Discussion Forum&quot;],</tspan><tspan x="0" y="43.2" style="font-family:'MyriadPro-Regular'; font-size:12px;">            typeSpeed: 200,</tspan><tspan x="0" y="57.6" style="font-family:'MyriadPro-Regular'; font-size:12px;">            fadeOut: true,</tspan><tspan x="0" y="72" style="font-family:'MyriadPro-Regular'; font-size:12px;">            loop: true,</tspan><tspan x="0" y="86.4" style="font-family:'MyriadPro-Regular'; font-size:12px;">            preStringTyped: function(pos) {</tspan><tspan x="0" y="100.8" style="font-family:'MyriadPro-Regular'; font-size:12px;">                $(&quot;.slider-list&quot;).removeClass(&quot;active&quot;);</tspan><tspan x="0" y="115.2" style="font-family:'MyriadPro-Regular'; font-size:12px;">                $(`.slider-list:eq(${pos})`).addClass(&quot;active&quot;);</tspan><tspan x="0" y="129.6" style="font-family:'MyriadPro-Regular'; font-size:12px;">                $(&quot;.text-list&quot;).removeClass(&quot;active&quot;);</tspan><tspan x="0" y="144" style="font-family:'MyriadPro-Regular'; font-size:12px;">                $(`.text-list:eq(${pos})`).addClass(&quot;active&quot;);</tspan><tspan x="0" y="158.4" style="font-family:'MyriadPro-Regular'; font-size:12px;">            }</tspan><tspan x="0" y="172.8" style="font-family:'MyriadPro-Regular'; font-size:12px;">        });</tspan><tspan x="0" y="201.6" style="font-family:'MyriadPro-Regular'; font-size:12px;">        $(&apos;.topper_slides&apos;).owlCarousel({</tspan><tspan x="0" y="216" style="font-family:'MyriadPro-Regular'; font-size:12px;">            loop: true,</tspan><tspan x="0" y="230.4" style="font-family:'MyriadPro-Regular'; font-size:12px;">            margin: 0,</tspan><tspan x="0" y="244.8" style="font-family:'MyriadPro-Regular'; font-size:12px;">            nav: true,</tspan><tspan x="0" y="259.2" style="font-family:'MyriadPro-Regular'; font-size:12px;">            autoplay: true,</tspan><tspan x="0" y="273.6" style="font-family:'MyriadPro-Regular'; font-size:12px;">            autoplayTimeout: 2000,</tspan><tspan x="0" y="288" style="font-family:'MyriadPro-Regular'; font-size:12px;">            dots: false,</tspan><tspan x="0" y="302.4" style="font-family:'MyriadPro-Regular'; font-size:12px;">            responsive: {</tspan><tspan x="0" y="316.8" style="font-family:'MyriadPro-Regular'; font-size:12px;">                0: {</tspan><tspan x="0" y="331.2" style="font-family:'MyriadPro-Regular'; font-size:12px;">                    items: 1</tspan><tspan x="0" y="345.6" style="font-family:'MyriadPro-Regular'; font-size:12px;">                },</tspan><tspan x="0" y="360" style="font-family:'MyriadPro-Regular'; font-size:12px;">                600: {</tspan><tspan x="0" y="374.4" style="font-family:'MyriadPro-Regular'; font-size:12px;">                    items: 2</tspan><tspan x="0" y="388.8" style="font-family:'MyriadPro-Regular'; font-size:12px;">                },</tspan><tspan x="0" y="403.2" style="font-family:'MyriadPro-Regular'; font-size:12px;">                1000: {</tspan><tspan x="0" y="417.6" style="font-family:'MyriadPro-Regular'; font-size:12px;">                    items: 4</tspan><tspan x="0" y="432" style="font-family:'MyriadPro-Regular'; font-size:12px;">                }</tspan><tspan x="0" y="446.4" style="font-family:'MyriadPro-Regular'; font-size:12px;">            }</tspan><tspan x="0" y="460.8" style="font-family:'MyriadPro-Regular'; font-size:12px;">        });</tspan><tspan x="0" y="489.6" style="font-family:'MyriadPro-Regular'; font-size:12px;">        $(&apos;.testimonial_slider&apos;).owlCarousel({</tspan><tspan x="0" y="504" style="font-family:'MyriadPro-Regular'; font-size:12px;">            loop: true,</tspan><tspan x="0" y="518.4" style="font-family:'MyriadPro-Regular'; font-size:12px;">            margin: 0,</tspan><tspan x="0" y="532.8" style="font-family:'MyriadPro-Regular'; font-size:12px;">            nav: false,</tspan><tspan x="0" y="547.2" style="font-family:'MyriadPro-Regular'; font-size:12px;">            autoplay: true,</tspan><tspan x="0" y="561.6" style="font-family:'MyriadPro-Regular'; font-size:12px;">            dots: true,</tspan><tspan x="0" y="576" style="font-family:'MyriadPro-Regular'; font-size:12px;">            responsive: {</tspan><tspan x="0" y="590.4" style="font-family:'MyriadPro-Regular'; font-size:12px;">                0: {</tspan><tspan x="0" y="604.8" style="font-family:'MyriadPro-Regular'; font-size:12px;">                    items: 1</tspan><tspan x="0" y="619.2" style="font-family:'MyriadPro-Regular'; font-size:12px;">                },</tspan><tspan x="0" y="633.6" style="font-family:'MyriadPro-Regular'; font-size:12px;">                600: {</tspan><tspan x="0" y="648" style="font-family:'MyriadPro-Regular'; font-size:12px;">                    items: 1</tspan><tspan x="0" y="662.4" style="font-family:'MyriadPro-Regular'; font-size:12px;">                },</tspan><tspan x="0" y="676.8" style="font-family:'MyriadPro-Regular'; font-size:12px;">                1000: {</tspan><tspan x="0" y="691.2" style="font-family:'MyriadPro-Regular'; font-size:12px;">                    items: 1</tspan><tspan x="0" y="705.6" style="font-family:'MyriadPro-Regular'; font-size:12px;">                }</tspan><tspan x="0" y="720" style="font-family:'MyriadPro-Regular'; font-size:12px;">            }</tspan><tspan x="0" y="734.4" style="font-family:'MyriadPro-Regular'; font-size:12px;">        });</tspan><tspan x="0" y="763.2" style="font-family:'MyriadPro-Regular'; font-size:12px;">        $(&apos;.tutor_slider&apos;).owlCarousel({</tspan><tspan x="0" y="777.6" style="font-family:'MyriadPro-Regular'; font-size:12px;">            loop: false,</tspan><tspan x="0" y="792" style="font-family:'MyriadPro-Regular'; font-size:12px;">            margin: 0,</tspan><tspan x="0" y="806.4" style="font-family:'MyriadPro-Regular'; font-size:12px;">            nav: false,</tspan><tspan x="0" y="820.8" style="font-family:'MyriadPro-Regular'; font-size:12px;">            autoplay: false,</tspan><tspan x="0" y="835.2" style="font-family:'MyriadPro-Regular'; font-size:12px;">            dots: true,</tspan><tspan x="0" y="849.6" style="font-family:'MyriadPro-Regular'; font-size:12px;">            mouseDrag: false,</tspan><tspan x="0" y="864" style="font-family:'MyriadPro-Regular'; font-size:12px;">            touchDrag: false,</tspan><tspan x="0" y="878.4" style="font-family:'MyriadPro-Regular'; font-size:12px;">            pullDrag: false,</tspan><tspan x="0" y="892.8" style="font-family:'MyriadPro-Regular'; font-size:12px;">            freeDrag: false,</tspan><tspan x="0" y="907.2" style="font-family:'MyriadPro-Regular'; font-size:12px;">            responsive: {</tspan><tspan x="0" y="921.6" style="font-family:'MyriadPro-Regular'; font-size:12px;">                0: {</tspan><tspan x="0" y="936" style="font-family:'MyriadPro-Regular'; font-size:12px;">                    items: 1</tspan><tspan x="0" y="950.4" style="font-family:'MyriadPro-Regular'; font-size:12px;">                },</tspan><tspan x="0" y="964.8" style="font-family:'MyriadPro-Regular'; font-size:12px;">                600: {</tspan><tspan x="0" y="979.2" style="font-family:'MyriadPro-Regular'; font-size:12px;">                    items: 1</tspan><tspan x="0" y="993.6" style="font-family:'MyriadPro-Regular'; font-size:12px;">                },</tspan><tspan x="0" y="1008" style="font-family:'MyriadPro-Regular'; font-size:12px;">                1000: {</tspan><tspan x="0" y="1022.4" style="font-family:'MyriadPro-Regular'; font-size:12px;">                    items: 7,</tspan><tspan x="0" y="1036.8" style="font-family:'MyriadPro-Regular'; font-size:12px;">                }</tspan><tspan x="0" y="1051.2" style="font-family:'MyriadPro-Regular'; font-size:12px;">            }</tspan><tspan x="0" y="1065.6" style="font-family:'MyriadPro-Regular'; font-size:12px;">        });</tspan><tspan x="0" y="1094.4" style="font-family:'MyriadPro-Regular'; font-size:12px;">        $(&apos;.tutor_mobile_slider&apos;).owlCarousel({</tspan><tspan x="0" y="1108.8" style="font-family:'MyriadPro-Regular'; font-size:12px;">            loop: true,</tspan><tspan x="0" y="1123.2" style="font-family:'MyriadPro-Regular'; font-size:12px;">            margin: 0,</tspan><tspan x="0" y="1137.6" style="font-family:'MyriadPro-Regular'; font-size:12px;">            nav: false,</tspan><tspan x="0" y="1152" style="font-family:'MyriadPro-Regular'; font-size:12px;">            autoplay: true,</tspan><tspan x="0" y="1166.4" style="font-family:'MyriadPro-Regular'; font-size:12px;">            dots: true,</tspan><tspan x="0" y="1180.8" style="font-family:'MyriadPro-Regular'; font-size:12px;">            responsive: {</tspan><tspan x="0" y="1195.2" style="font-family:'MyriadPro-Regular'; font-size:12px;">                0: {</tspan><tspan x="0" y="1209.6" style="font-family:'MyriadPro-Regular'; font-size:12px;">                    items: 1</tspan><tspan x="0" y="1224" style="font-family:'MyriadPro-Regular'; font-size:12px;">                },</tspan><tspan x="0" y="1238.4" style="font-family:'MyriadPro-Regular'; font-size:12px;">                700: {</tspan><tspan x="0" y="1252.8" style="font-family:'MyriadPro-Regular'; font-size:12px;">                    items: 3</tspan><tspan x="0" y="1267.2" style="font-family:'MyriadPro-Regular'; font-size:12px;">                },</tspan><tspan x="0" y="1281.6" style="font-family:'MyriadPro-Regular'; font-size:12px;">                1000: {</tspan><tspan x="0" y="1296" style="font-family:'MyriadPro-Regular'; font-size:12px;">                    items: 3,</tspan><tspan x="0" y="1310.4" style="font-family:'MyriadPro-Regular'; font-size:12px;">                }</tspan><tspan x="0" y="1324.8" style="font-family:'MyriadPro-Regular'; font-size:12px;">            }</tspan><tspan x="0" y="1339.2" style="font-family:'MyriadPro-Regular'; font-size:12px;">        });</tspan><tspan x="0" y="1368" style="font-family:'MyriadPro-Regular'; font-size:12px;">        $(&apos;.ipad_steps_slider&apos;).owlCarousel({</tspan><tspan x="0" y="1382.4" style="font-family:'MyriadPro-Regular'; font-size:12px;">            loop: true,</tspan><tspan x="0" y="1396.8" style="font-family:'MyriadPro-Regular'; font-size:12px;">            margin: 0,</tspan><tspan x="0" y="1411.2" style="font-family:'MyriadPro-Regular'; font-size:12px;">            nav: false,</tspan><tspan x="0" y="1425.6" style="font-family:'MyriadPro-Regular'; font-size:12px;">            autoplay: true,</tspan><tspan x="0" y="1440" style="font-family:'MyriadPro-Regular'; font-size:12px;">            dots: true,</tspan><tspan x="0" y="1454.4" style="font-family:'MyriadPro-Regular'; font-size:12px;">            responsive: {</tspan><tspan x="0" y="1468.8" style="font-family:'MyriadPro-Regular'; font-size:12px;">                0: {</tspan><tspan x="0" y="1483.2" style="font-family:'MyriadPro-Regular'; font-size:12px;">                    items: 1</tspan><tspan x="0" y="1497.6" style="font-family:'MyriadPro-Regular'; font-size:12px;">                },</tspan><tspan x="0" y="1512" style="font-family:'MyriadPro-Regular'; font-size:12px;">                700: {</tspan><tspan x="0" y="1526.4" style="font-family:'MyriadPro-Regular'; font-size:12px;">                    items: 1</tspan><tspan x="0" y="1540.8" style="font-family:'MyriadPro-Regular'; font-size:12px;">                },</tspan><tspan x="0" y="1555.2" style="font-family:'MyriadPro-Regular'; font-size:12px;">                1000: {</tspan><tspan x="0" y="1569.6" style="font-family:'MyriadPro-Regular'; font-size:12px;">                    items: 1</tspan><tspan x="0" y="1584" style="font-family:'MyriadPro-Regular'; font-size:12px;">                }</tspan><tspan x="0" y="1598.4" style="font-family:'MyriadPro-Regular'; font-size:12px;">            }</tspan><tspan x="0" y="1612.8" style="font-family:'MyriadPro-Regular'; font-size:12px;">        });</tspan><tspan x="0" y="1656" style="font-family:'MyriadPro-Regular'; font-size:12px;">        $(&apos;#marqueediv&apos;).width($(&apos;#div1&apos;).width());</tspan><tspan x="0" y="1684.8" style="font-family:'MyriadPro-Regular'; font-size:12px;">        $(&quot;.w_learn&quot;).click(function() {</tspan><tspan x="0" y="1699.2" style="font-family:'MyriadPro-Regular'; font-size:12px;">            $(&apos;html,body&apos;).animate({</tspan><tspan x="0" y="1713.6" style="font-family:'MyriadPro-Regular'; font-size:12px;">                &apos;scrollTop&apos;: $(&apos;.E_learn&apos;).offset().top - 100 + &apos;px&apos;</tspan><tspan x="0" y="1728" style="font-family:'MyriadPro-Regular'; font-size:12px;">            }, 400);</tspan><tspan x="0" y="1742.4" style="font-family:'MyriadPro-Regular'; font-size:12px;">        });</tspan><tspan x="0" y="1756.8" style="font-family:'MyriadPro-Regular'; font-size:12px;">        $(&quot;.Virtual_c&quot;).click(function() {</tspan><tspan x="0" y="1771.2" style="font-family:'MyriadPro-Regular'; font-size:12px;">            $(&apos;html,body&apos;).animate({</tspan><tspan x="0" y="1785.6" style="font-family:'MyriadPro-Regular'; font-size:12px;">                &apos;scrollTop&apos;: $(&apos;.V_class&apos;).offset().top - 100 + &apos;px&apos;</tspan><tspan x="0" y="1800" style="font-family:'MyriadPro-Regular'; font-size:12px;">            }, 400);</tspan><tspan x="0" y="1814.4" style="font-family:'MyriadPro-Regular'; font-size:12px;">        });</tspan><tspan x="0" y="1828.8" style="font-family:'MyriadPro-Regular'; font-size:12px;">        $(&quot;.quickme&quot;).click(function() {</tspan><tspan x="0" y="1843.2" style="font-family:'MyriadPro-Regular'; font-size:12px;">            $(&apos;html,body&apos;).animate({</tspan><tspan x="0" y="1857.6" style="font-family:'MyriadPro-Regular'; font-size:12px;">                &apos;scrollTop&apos;: $(&apos;.sec_aboutus&apos;).offset().top - 100 + &apos;px&apos;</tspan><tspan x="0" y="1872" style="font-family:'MyriadPro-Regular'; font-size:12px;">            }, 400);</tspan><tspan x="0" y="1886.4" style="font-family:'MyriadPro-Regular'; font-size:12px;">        });</tspan><tspan x="0" y="1900.8" style="font-family:'MyriadPro-Regular'; font-size:12px;">        $(&quot;.work&quot;).click(function() {</tspan><tspan x="0" y="1915.2" style="font-family:'MyriadPro-Regular'; font-size:12px;">            $(&apos;html,body&apos;).animate({</tspan><tspan x="0" y="1929.6" style="font-family:'MyriadPro-Regular'; font-size:12px;">                &apos;scrollTop&apos;: $(&apos;.sec_it_works&apos;).offset().top - 100 + &apos;px&apos;</tspan><tspan x="0" y="1944" style="font-family:'MyriadPro-Regular'; font-size:12px;">            }, 400);</tspan><tspan x="0" y="1958.4" style="font-family:'MyriadPro-Regular'; font-size:12px;">        });</tspan><tspan x="0" y="1972.8" style="font-family:'MyriadPro-Regular'; font-size:12px;">        $(&quot;.Why_us&quot;).click(function() {</tspan><tspan x="0" y="1987.2" style="font-family:'MyriadPro-Regular'; font-size:12px;">            $(&apos;html,body&apos;).animate({</tspan><tspan x="0" y="2001.6" style="font-family:'MyriadPro-Regular'; font-size:12px;">                &apos;scrollTop&apos;: $(&apos;.Why_choose_us&apos;).offset().top - 100 + &apos;px&apos;</tspan><tspan x="0" y="2016" style="font-family:'MyriadPro-Regular'; font-size:12px;">            }, 400);</tspan><tspan x="0" y="2030.4" style="font-family:'MyriadPro-Regular'; font-size:12px;">        });</tspan><tspan x="0" y="2044.8" style="font-family:'MyriadPro-Regular'; font-size:12px;">        $(&quot;.tutor&quot;).click(function() {</tspan><tspan x="0" y="2059.2" style="font-family:'MyriadPro-Regular'; font-size:12px;">            $(&apos;html,body&apos;).animate({</tspan><tspan x="0" y="2073.6" style="font-family:'MyriadPro-Regular'; font-size:12px;">                &apos;scrollTop&apos;: $(&apos;.our_tutors&apos;).offset().top - 100 + &apos;px&apos;</tspan><tspan x="0" y="2088" style="font-family:'MyriadPro-Regular'; font-size:12px;">            }, 400);</tspan><tspan x="0" y="2102.4" style="font-family:'MyriadPro-Regular'; font-size:12px;">        });</tspan><tspan x="0" y="2116.8" style="font-family:'MyriadPro-Regular'; font-size:12px;">        $(&quot;.testimonal&quot;).click(function() {</tspan><tspan x="0" y="2131.2" style="font-family:'MyriadPro-Regular'; font-size:12px;">            $(&apos;html,body&apos;).animate({</tspan><tspan x="0" y="2145.6" style="font-family:'MyriadPro-Regular'; font-size:12px;">                &apos;scrollTop&apos;: $(&apos;.testimonial&apos;).offset().top - 100 + &apos;px&apos;</tspan><tspan x="0" y="2160" style="font-family:'MyriadPro-Regular'; font-size:12px;">            }, 400);</tspan><tspan x="0" y="2174.4" style="font-family:'MyriadPro-Regular'; font-size:12px;">        });</tspan><tspan x="0" y="2188.8" style="font-family:'MyriadPro-Regular'; font-size:12px;">    })</tspan><tspan x="0" y="2217.6" style="font-family:'MyriadPro-Regular'; font-size:12px;">    $(window).scroll(function() {</tspan><tspan x="0" y="2232" style="font-family:'MyriadPro-Regular'; font-size:12px;">        var scroll = $(window).scrollTop();</tspan><tspan x="0" y="2246.4" style="font-family:'MyriadPro-Regular'; font-size:12px;">        if (scroll &gt;= 60) {</tspan><tspan x="0" y="2260.8" style="font-family:'MyriadPro-Regular'; font-size:12px;">            $(&quot;.nav_bg&quot;).addClass(&quot;nav_bg2&quot;);</tspan><tspan x="0" y="2275.2" style="font-family:'MyriadPro-Regular'; font-size:12px;">        } else {</tspan><tspan x="0" y="2289.6" style="font-family:'MyriadPro-Regular'; font-size:12px;">            $(&quot;.nav_bg&quot;).removeClass(&quot;nav_bg2&quot;);</tspan><tspan x="0" y="2304" style="font-family:'MyriadPro-Regular'; font-size:12px;">        }</tspan><tspan x="0" y="2318.4" style="font-family:'MyriadPro-Regular'; font-size:12px;">    });</tspan><tspan x="0" y="2347.2" style="font-family:'MyriadPro-Regular'; font-size:12px;">    mobToggle();</tspan><tspan x="0" y="2361.6" style="font-family:'MyriadPro-Regular'; font-size:12px;">    $(window).resize(mobToggle);</tspan><tspan x="0" y="2390.4" style="font-family:'MyriadPro-Regular'; font-size:12px;">    function mobToggle() {</tspan><tspan x="0" y="2404.8" style="font-family:'MyriadPro-Regular'; font-size:12px;">        var wi = $(window).width();</tspan><tspan x="0" y="2419.2" style="font-family:'MyriadPro-Regular'; font-size:12px;">        if (wi &lt;= 766) {</tspan><tspan x="0" y="2433.6" style="font-family:'MyriadPro-Regular'; font-size:12px;">            $(&quot;.drop_menu&quot;).removeClass(&apos;dropdown_box&apos;);</tspan><tspan x="0" y="2448" style="font-family:'MyriadPro-Regular'; font-size:12px;">            $(&quot;.drop_menu&quot;).addClass(&apos;dropdown-menu&apos;);</tspan><tspan x="0" y="2462.4" style="font-family:'MyriadPro-Regular'; font-size:12px;">        } else {</tspan><tspan x="0" y="2476.8" style="font-family:'MyriadPro-Regular'; font-size:12px;">            $(&quot;.drop_menu&quot;).addClass(&apos;dropdown_box&apos;);</tspan><tspan x="0" y="2491.2" style="font-family:'MyriadPro-Regular'; font-size:12px;">            $(&quot;.drop_menu&quot;).removeClass(&apos;dropdown-menu&apos;);</tspan><tspan x="0" y="2505.6" style="font-family:'MyriadPro-Regular'; font-size:12px;">        }</tspan><tspan x="0" y="2520" style="font-family:'MyriadPro-Regular'; font-size:12px;">    }</tspan></text>
<path id="Path_45216" class="st0" d="M28.7,35h-4V16.1h-7.6v4.6L2.2,24.9C0.8,27.5,0,30.5,0,33.5c-0.1,2.4,0.7,4.8,2.3,6.7
	c1.6,1.7,3.9,2.6,6.9,2.6c2.3,0,5-1,7.8-2.9v3.9h11.6l0.5-0.8v-7.1L28.7,35z M17.1,32.9c-2.1,1-4.4,1.5-6.7,1.5
	c-2.4,0-3.6-0.9-3.6-2.6c0-0.6,0.1-1.3,0.2-1.9l10.1-2.9V32.9z"/>
<path id="Path_45217" class="st0" d="M49.1,35.6v7.6l-0.5,0.5H48c-0.7,0-1.4-0.1-2.1-0.3c-0.7-0.2-1.4-0.6-1.9-1.1
	c-0.5-0.4-1-0.9-1.5-1.3c-0.3-0.3-0.9-0.9-1.7-1.8L38,43.8h-9.3l-1.1-1.1v-6.9l1.1-0.8h7.6V21.2h7.7v12.7c1.3,0.8,2.8,1.2,4.3,1.2
	h0.3L49.1,35.6z"/>
<path id="Path_45218" class="st0" d="M48.6,35h10.6c0.5-0.1,1,0.3,1.1,0.8c0,0.1,0,0.2,0,0.3v6.6c0.1,0.5-0.3,1-0.8,1.1
	c-0.1,0-0.2,0-0.3,0H48.6c-0.5,0.1-1-0.3-1.1-0.8c0-0.1,0-0.2,0-0.3v-6.6c-0.1-0.5,0.3-1,0.8-1.1C48.4,35,48.5,35,48.6,35z"/>
<path id="Path_45219" class="st0" d="M59.2,35h10.6c0.5-0.1,1,0.3,1.1,0.8c0,0.1,0,0.2,0,0.3v6.6c0.1,0.5-0.3,1-0.8,1.1
	c-0.1,0-0.2,0-0.3,0H59.2c-0.5,0.1-1-0.3-1.1-0.8c0-0.1,0-0.2,0-0.3v-6.6c-0.1-0.5,0.3-1,0.8-1.1C59,35,59.1,35,59.2,35z"/>
<path id="Path_45220" class="st0" d="M69.8,35h10.6c0.5-0.1,1,0.3,1.1,0.8c0,0.1,0,0.2,0,0.3v6.6c0.1,0.5-0.3,1-0.8,1.1
	c-0.1,0-0.2,0-0.3,0H69.8c-0.5,0.1-1-0.3-1.1-0.8c0-0.1,0-0.2,0-0.3v-6.6c-0.1-0.5,0.3-1,0.8-1.1C69.6,35,69.7,35,69.8,35z"/>
<path id="Path_45221" class="st0" d="M80.5,35h10.6c0.5-0.1,1,0.3,1.1,0.8c0,0.1,0,0.2,0,0.3v6.6c0.1,0.5-0.3,1-0.8,1.1
	c-0.1,0-0.2,0-0.3,0H80.5c-0.5,0.1-1-0.3-1.1-0.8c0-0.1,0-0.2,0-0.3v-6.6c-0.1-0.5,0.3-1,0.8-1.1C80.3,35,80.4,35,80.5,35z"/>
<path id="Path_45222" class="st0" d="M91.1,35h10.6c0.5-0.1,1,0.3,1.1,0.8c0,0.1,0,0.2,0,0.3v6.6c0.1,0.5-0.3,1-0.8,1.1
	c-0.1,0-0.2,0-0.3,0H91.1c-0.5,0.1-1-0.3-1.1-0.8c0-0.1,0-0.2,0-0.3v-6.6c-0.1-0.5,0.3-1,0.8-1.1C90.9,35,91,35,91.1,35z"/>
<path id="Path_45223" class="st0" d="M149.4,35.6v7.6l-0.5,0.5h-0.5c-1.2,0-2.5-0.3-3.5-1c-1.2-0.9-2.3-1.9-3.3-3l-2.6,4
	c-4.7-0.1-9.3-1.5-13.3-4l-2.9,4c-3.5-0.1-6.9-1.3-9.5-3.6l-0.5,3.6h-10.9l-0.5-0.5v-7.7l0.5-0.5h4.6l1.8-13.3h7.5L114,33.4
	c2,1,4.2,1.5,6.5,1.5l1.6-13.2h7.4l-1.4,12.1c2.8,0.8,5.6,1.2,8.5,1.2c-0.7-5.1-1.4-9.8-2.2-14.2l7.6-1.6c0.9,4.9,1.7,9.8,2.3,14.6
	c1.3,0.8,2.8,1.2,4.3,1.2h0.3L149.4,35.6z"/>
<path id="Path_45224" class="st0" d="M180.8,35.6v7.6l-0.5,0.5h-0.5c-1.2,0-2.3-0.3-3.3-0.9c-1.1-0.7-2.1-1.6-3-2.6l-4.9,4.8
	L156.4,40c-0.9,1.2-2,2.2-3.3,3c-1.3,0.6-2.7,0.8-4.1,0.8h-0.2l-0.5-0.7v-7l0.5-1.1h0.8c0.9-0.1,1.8-0.6,2.3-1.3
	c1.2-1.6,2.3-3.2,3.3-5c1.5-2.5,3.3-4.8,5.5-6.7c1.7-1.5,3.8-2.4,6.1-2.4c2.6,0,5,1.4,6.3,3.5c1.8,2.5,2.6,5.6,2.6,8.6
	c0,0.7-0.1,1.4-0.2,2.1c1.3,0.9,2.8,1.3,4.3,1.2h0.3L180.8,35.6z M165.2,28.2c-0.9,0-1.7,0.5-2.3,1.2c-1.1,1.4-2,2.8-2.8,4.4l8,3.5
	c0.5-1.3,0.7-2.7,0.7-4.1c0.1-1.3-0.3-2.6-1.1-3.6C167.2,28.8,166.3,28.2,165.2,28.2z"/>
<path id="Path_45225" class="st0" d="M186.8,19.6h7.7v24.2h-14.3l-1.1-1.1v-6.9l1.1-0.8h6.6V19.6z"/>
<g id="Group_64839" transform="translate(176.728 335.239)">
	<path id="Path_45226" class="st0" d="M-164.6-271.3h-4.3v12.1h-3.6v-12.1h-4.3v-3.2h12.1V-271.3z"/>
	<path id="Path_45227" class="st0" d="M-146.2-262.8h-5l-1.1,3.5h-3.4l5-15.2h4.4l5.1,15.2h-3.8L-146.2-262.8z M-147.1-265.7l-1.6-5
		l-1.6,5H-147.1z"/>
	<path id="Path_45228" class="st0" d="M-115.3-274.5v15.2h-3.6v-6c0-1.1,0.1-2.2,0.2-3.3h-0.2c-0.2,1-0.6,2-1,3l-2,4.5h-2.7l-2-4.5
		c-0.4-1-0.7-1.9-1-3h-0.2c0.1,1.1,0.2,2.2,0.2,3.3v6h-3.3v-15.2h3.5l4.5,10.1l4.2-10.1H-115.3z"/>
	<path id="Path_45229" class="st0" d="M-98.1-268.5l0.3,0.1c1.4,0.5,2.8,1.2,3.9,2.2c0.7,0.8,1.1,1.8,1.1,2.8c0,1.1-0.3,2.2-0.8,3.2
		c-0.7,0.4-1.4,0.8-2.2,0.9c-1,0.2-2,0.3-2.9,0.3c-1.8,0.1-3.5-0.2-5.2-0.8v-3.1l0.2-0.2c1.7,0.6,3.5,0.9,5.4,0.9
		c0.7,0,1.5-0.1,2.2-0.2c0-0.1,0-0.3,0-0.4c0-0.4-0.2-0.8-0.6-1.1c-0.7-0.5-1.5-0.8-2.3-1.1l-0.3-0.1c-1.4-0.5-2.7-1.2-3.7-2.3
		c-0.7-0.9-1.1-2-1-3.2c0-1.1,0.3-2.1,0.8-3c1.6-0.9,3.4-1.4,5.3-1.3c1.5,0,3.1,0.2,4.5,0.7v3.1l-0.2,0.2c-1.5-0.5-3-0.8-4.5-0.8
		c-0.8,0-1.6,0.1-2.3,0.3c0,0.1,0,0.3,0,0.4c0,0.5,0.2,0.9,0.5,1.3C-99.6-269.2-98.9-268.8-98.1-268.5z"/>
	<path id="Path_45230" class="st0" d="M-69.1-274.5v15.2h-3.6v-6h-5.9v6h-3.6v-15.2h3.6v6h5.9v-6H-69.1z"/>
	<path id="Path_45231" class="st0" d="M-53.8-274.5v15.2h-3.6v-15.2H-53.8z"/>
	<path id="Path_45232" class="st0" d="M-29.3-274.5l-5.2,10.2v5h-3.6v-5.1l-5.3-10.1h3.8l3.5,6.9l3.4-6.9L-29.3-274.5z"/>
	<path id="Path_45233" class="st0" d="M-10.6-262.8h-5l-1.1,3.5h-3.4l5-15.2h4.4l5.1,15.2h-3.8L-10.6-262.8z M-11.5-265.7l-1.6-5
		l-1.6,5H-11.5z"/>
	<path id="Path_45234" class="st0" d="M17.8-274.5v15.2h-3.6v-6H8.3v6H4.8v-15.2h3.6v6h5.9v-6H17.8z"/>
</g>
<path id="Path_45235" class="st1" d="M195.5,4.8c-1.7-0.4-3.6,0.2-4.8,1.5c-0.5,0.5-1.2,0.5-1.7,0.1c0,0,0,0-0.1-0.1
	c-1.9-2-5-2.2-7.1-0.3s-2.2,5-0.3,7.1s5,2.2,7.1,0.3c0.1-0.1,0.2-0.2,0.3-0.3c0.5-0.5,1.2-0.5,1.7,0c0,0,0,0,0,0
	c1.9,2,5,2.2,7.1,0.3c2-1.9,2.2-5,0.3-7.1C197.3,5.6,196.5,5,195.5,4.8L195.5,4.8z"/>
<path id="Path_45236" class="st1" d="M140.1,8.7c-0.6-2.7-3.2-4.4-5.9-3.9c-1,0.2-1.9,0.7-2.6,1.5c-0.5,0.5-1.2,0.5-1.7,0.1
	c0,0,0,0-0.1-0.1c0,0,0,0,0,0c-0.3-0.3-0.5-0.5-0.9-0.7c0,0-0.1-0.1-0.1-0.1c-0.3-0.2-0.7-0.4-1-0.5c0,0-0.1,0-0.1,0
	c-0.1,0-0.3-0.1-0.4-0.1s-0.3,0-0.4,0c-0.5-0.1-0.9-0.1-1.4,0c-0.1,0-0.3,0-0.4,0s-0.3,0.1-0.4,0.1c0,0-0.1,0-0.1,0
	c-0.4,0.1-0.7,0.3-1,0.5c0,0-0.1,0.1-0.1,0.1c-0.3,0.2-0.6,0.5-0.9,0.7c0,0,0,0,0,0c-0.5,0.5-1.2,0.5-1.7,0.1c0,0,0,0-0.1-0.1
	c-1.9-2-5-2.2-7.1-0.3s-2.2,5-0.3,7.1s5,2.2,7.1,0.3c0.1-0.1,0.2-0.2,0.3-0.3c0.5-0.5,1.2-0.5,1.7,0c0,0,0,0,0,0
	c0.1,0.1,0.3,0.2,0.4,0.4c0.1,0.1,0.2,0.2,0.3,0.2c0.2,0.1,0.4,0.3,0.6,0.4c0.1,0,0.2,0.1,0.3,0.1c0.3,0.1,0.5,0.2,0.8,0.3
	c0.1,0,0.1,0,0.2,0.1c0.4,0.1,0.7,0.1,1.1,0.1h0c0.4,0,0.7,0,1.1-0.1c0.1,0,0.1,0,0.2-0.1c0.3-0.1,0.6-0.2,0.8-0.3
	c0.1,0,0.2-0.1,0.3-0.2c0.2-0.1,0.4-0.3,0.6-0.4c0.1-0.1,0.2-0.2,0.3-0.2c0.1-0.1,0.3-0.2,0.4-0.4c0.5-0.5,1.2-0.5,1.7,0
	c0,0,0,0,0,0c1.9,2,5,2.2,7.1,0.3C139.9,12.2,140.5,10.4,140.1,8.7L140.1,8.7z"/>
<path id="Path_45237" class="st1" d="M16.7,4.8C15,4.4,13.2,5,12,6.3c-0.5,0.5-1.2,0.5-1.7,0.1c0,0,0,0-0.1-0.1
	c-1.9-2-5-2.2-7.1-0.3s-2.2,5-0.3,7.1s5,2.2,7.1,0.3c0.1-0.1,0.2-0.2,0.3-0.3c0.5-0.5,1.2-0.5,1.7,0c0,0,0,0,0,0
	c1.9,2,5,2.2,7.1,0.3c2-1.9,2.2-5,0.3-7.1C18.6,5.6,17.7,5,16.7,4.8L16.7,4.8z"/>
<path id="Path_45238" class="st1" d="M44.2,48.1c-1.7-0.4-3.6,0.2-4.8,1.5c-0.5,0.5-1.2,0.5-1.7,0.1c0,0,0,0-0.1-0.1
	c-1.9-2-5-2.2-7.1-0.3s-2.2,5-0.3,7.1s5,2.2,7.1,0.3c0.1-0.1,0.2-0.2,0.3-0.3c0.5-0.5,1.3-0.5,1.7,0c0,0,0,0,0,0
	c1.9,2,5,2.2,7.1,0.3c2-1.9,2.2-5,0.3-7.1C46.1,48.8,45.2,48.3,44.2,48.1L44.2,48.1z"/>
</svg>
