<?xml version="1.0" encoding="utf-8"?>
<!-- Generator: Adobe Illustrator 24.2.3, SVG Export Plug-In . SVG Version: 6.00 Build 0)  -->
<svg version="1.1" id="Layer_1" xmlns="http://www.w3.org/2000/svg" xmlns:xlink="http://www.w3.org/1999/xlink" x="0px" y="0px"
	 viewBox="0 0 114 63" style="enable-background:new 0 0 114 63;" xml:space="preserve">
<style type="text/css">
	.st0{fill:#FBB03B;}
</style>
<g id="Group_64838" transform="translate(219.64 191.236)">
	<path id="Path_45214" class="st0" d="M-143.4-191.2l-17.1,17c-1.1,1.1-1.1,2.9,0,3.9c0.5,0.5,1.2,0.8,2,0.8h33
		c0,11.8-9.6,21.4-21.4,21.4h-56.9l-14.6,14.6c-1.1,1.1-1.1,2.9,0,3.9c0.5,0.5,1.2,0.8,2,0.8h75.1c19.7,0,35.6-15.9,35.6-35.6v0
		v-27.1L-143.4-191.2z"/>
	<path id="Path_45215" class="st0" d="M-174.1-190.9c-3.8-0.9-7.8,0.4-10.4,3.2c-1,1.1-2.7,1.1-3.8,0.1c0,0-0.1-0.1-0.1-0.1
		c-4.1-4.4-10.9-4.7-15.4-0.6s-4.7,10.9-0.6,15.4s10.9,4.7,15.4,0.6c0.2-0.2,0.5-0.4,0.7-0.7c1-1.1,2.7-1.1,3.8-0.1
		c0,0,0.1,0.1,0.1,0.1c4.1,4.4,10.9,4.7,15.4,0.7c4.4-4.1,4.7-10.9,0.7-15.4C-170-189.3-171.9-190.4-174.1-190.9L-174.1-190.9z"/>
</g>
</svg>
