<svg xmlns="http://www.w3.org/2000/svg" xmlns:xlink="http://www.w3.org/1999/xlink" width="195" height="76" viewBox="0 0 195 76">
  <defs>
    <clipPath id="clip-path">
      <rect id="Rectangle_63109" data-name="Rectangle 63109" width="195" height="76" transform="translate(-13931 13124)" fill="#fff" stroke="#707070" stroke-width="1"/>
    </clipPath>
    <clipPath id="clip-path-2">
      <rect id="Rectangle_63110" data-name="Rectangle 63110" width="274" height="76" fill="#fff"/>
    </clipPath>
  </defs>
  <g id="Mask_Group_884" data-name="Mask Group 884" transform="translate(13931 -13124)" clip-path="url(#clip-path)">
    <g id="Frame" transform="translate(-14010 13124)" clip-path="url(#clip-path-2)">
      <path id="Path_493823" data-name="Path 493823" d="M120.745,59.286H83.908V53.629A277.544,277.544,0,0,1,112.14,15.49H84.583V9.679h35.569v5.657c-12.228,14.122-20.588,24.9-28.774,38.087h29.367Z" fill="#fff"/>
      <path id="Path_493824" data-name="Path 493824" d="M144.055,59.759c-10.232,0-17.395-5.287-17.395-15.346V37.779c0-9.452,6.078-15.428,15.789-15.428s14.9,5.441,14.9,15.048c0,3.95,0,4.772-.082,5.513H132.861V44.4c0,6.552,4.891,10.2,12.085,10.2a39.584,39.584,0,0,0,11.194-1.79v5.143A39.125,39.125,0,0,1,144.055,59.759ZM132.861,38.077h18.306V36.442c0-5.955-2.957-9.01-8.667-9.01-6.14,0-9.639,3.353-9.639,9.535Z" fill="#fff"/>
      <path id="Path_493825" data-name="Path 493825" d="M182,59.759c-10.232,0-17.4-5.287-17.4-15.346V37.779c0-9.452,6.078-15.428,15.789-15.428,9.557,0,14.9,5.441,14.9,15.048,0,3.95,0,4.772-.081,5.513H170.8V44.4c0,6.552,4.891,10.2,12.084,10.2a39.585,39.585,0,0,0,11.195-1.79v5.143A39.125,39.125,0,0,1,182,59.759ZM170.8,38.077H189.11V36.442c0-5.955-2.957-9.01-8.667-9.01-6.14,0-9.639,3.353-9.639,9.535Z" fill="#fff"/>
      <path id="Path_493826" data-name="Path 493826" d="M209.749,58.257V75.99h-6.3V25.179a54.578,54.578,0,0,1,15.932-2.829c8.892,0,15.114,4.176,15.114,14.976V44.7c0,10.285-6.887,15.048-15.114,15.048A27.309,27.309,0,0,1,209.749,58.257ZM228.168,44.1V37.769c0-7.591-3.633-10.2-9.117-10.2a30.256,30.256,0,0,0-9.261,1.563V52.446a20.533,20.533,0,0,0,8.964,2.057c5.587-.031,9.373-3.312,9.373-10.388Z" fill="#fff"/>
      <path id="Path_493827" data-name="Path 493827" d="M242.135,44.557V37.563c0-9.761,5.772-15.2,15.933-15.2S274,27.874,274,37.563v6.994c0,9.761-5.853,15.2-15.932,15.2S242.135,54.318,242.135,44.557Zm25.418-.072v-6.8c0-6.706-3.069-10.2-9.485-10.2s-9.5,3.425-9.5,10.2v6.85c0,6.778,3.07,10.131,9.5,10.131S267.553,51.191,267.553,44.485Z" fill="#fff"/>
      <path id="Path_493828" data-name="Path 493828" d="M20.066,57.383H35.333c7.368,0,7.715,11.15.348,11.448a35.312,35.312,0,0,1-4.165-.072A34.255,34.255,0,0,1,6.889,55.127,34.615,34.615,0,0,1,.675,27.565a5.717,5.717,0,0,1,5.6-4.608H36.121L15.472,47.972a5.752,5.752,0,0,0-.123,7.2,5.9,5.9,0,0,0,4.717,2.211Z" fill="#00ceff"/>
      <path id="Path_493829" data-name="Path 493829" d="M68.487,33.15a35.064,35.064,0,0,1-.655,8.146,5.728,5.728,0,0,1-5.6,4.608H32.028L52.719,20.88a5.745,5.745,0,0,0-1.325-8.512,5.678,5.678,0,0,0-3.065-.889H33.174c-7.378,0-7.715-11.15-.348-11.448A33.086,33.086,0,0,1,36.981.1,34.48,34.48,0,0,1,68.487,33.15Z" fill="#00ceff"/>
    </g>
  </g>
</svg>
