<svg xmlns="http://www.w3.org/2000/svg" width="234.608" height="43" viewBox="0 0 234.608 43">
  <g id="Group_192072" data-name="Group 192072" transform="translate(2620 -4430)">
    <g id="Group_192071" data-name="Group 192071" transform="translate(-2986.779 4143.618)">
      <g id="Group_192041" data-name="Group 192041" transform="translate(563.111 323.006)">
        <circle id="Ellipse_24298" data-name="Ellipse 24298" cx="3.188" cy="3.188" r="3.188" transform="translate(0 0)" fill="#fff"/>
        <circle id="Ellipse_24299" data-name="Ellipse 24299" cx="3.188" cy="3.188" r="3.188" transform="translate(14.567 0)" fill="#fff"/>
      </g>
      <path id="Path_261027" data-name="Path 261027" d="M591.322,298.353a14.319,14.319,0,0,0-27.48-2.819,8.592,8.592,0,0,0-8.956,1.976c5.97,3.736,14.341,3.936,15.636,3.944h.171l-.849-2.792,10.127,5.848-10.129,5.846.851-2.792s-17.583.554-24.914,7.589a8.053,8.053,0,0,0,7.092,4.235h37.992a10.523,10.523,0,0,0,.459-21.036Zm-15.191-1.487a.935.935,0,1,1-1.87,0v-2.449a.935.935,0,0,1,1.87,0Zm3.809,2.9a.935.935,0,0,1,0-1.322l1.732-1.732a.935.935,0,1,1,1.322,1.322l-1.732,1.732A.936.936,0,0,1,579.94,299.766ZM576.131,314.6a.935.935,0,1,1-1.87,0v-2.449a.935.935,0,1,1,1.87,0Zm6.863-2.295h0a.935.935,0,0,1-1.322,0l-1.732-1.732a.935.935,0,1,1,1.322-1.322l1.732,1.732A.935.935,0,0,1,582.994,312.308Zm2.295-6.863H582.84a.935.935,0,1,1,0-1.869h2.449a.935.935,0,1,1,0,1.869Z" fill="#fff"/>
    </g>
    <text id="Akunamatata" transform="translate(-2620 4460)" fill="#fff" font-size="25" font-family="Rubik-Bold, Rubik" font-weight="700"><tspan x="0" y="0">Akunamatata</tspan></text>
  </g>
</svg>
