<svg xmlns="http://www.w3.org/2000/svg" width="143.558" height="182.889" viewBox="0 0 143.558 182.889">
  <g id="Group_171308" data-name="Group 171308" transform="translate(6157.833 8014.939)">
    <g id="Group_160032" data-name="Group 160032" transform="translate(-6713.471 -8319.689)">
      <g id="Group_160013" data-name="Group 160013" transform="translate(547.471 303.481)">
        <circle id="Ellipse_24209" data-name="Ellipse 24209" cx="60.606" cy="60.606" r="60.606" transform="translate(24.663 1.269)" fill="#2B9D13"/>
        <g id="Group_160012" data-name="Group 160012" transform="translate(0 0)">
          <g id="Group_160011" data-name="Group 160011" transform="translate(0 18.467) rotate(-9)">
            <g id="Group_160010" data-name="Group 160010" transform="translate(77.398 0) rotate(56)">
              <path id="Path_440796" data-name="Path 440796" d="M72.691,18.723A2.517,2.517,0,0,1,70.012,21.4q-4.881,0-9.762,0a1.068,1.068,0,0,1-1.205-.859A6.837,6.837,0,0,0,51.484,15.4a10.756,10.756,0,0,0-5.68,1.78,10.8,10.8,0,0,0-4.046,6.06,16.36,16.36,0,0,0-.718,4.848c.032,3.486-.714,59.674-.715,63.16a1.843,1.843,0,0,1-2.1,2.11q-3.742,0-7.484,0a1.8,1.8,0,0,1-2-2.011c0-4.075.738-60.852.719-64.927a21.523,21.523,0,0,0-.917-7.012A8.1,8.1,0,0,0,24.9,14.66a8.1,8.1,0,0,0-4.806-.912,16.3,16.3,0,0,0-9.105,3.527C4.612,22.1,1,31.961.62,31.57s-2.18-11.294,2.889-18.2S13.289,4.328,20.144,2.34A52.062,52.062,0,0,1,34.533.3c2.891-.01,5.783.165,8.675.269.7.025.978.268,1.17.968A7.556,7.556,0,0,0,56.354,5.511a5.819,5.819,0,0,0,2.212-4.375A1.046,1.046,0,0,1,59.739,0q5,0,9.994,0a2.96,2.96,0,0,1,2.956,2.96C72.7,5.614,72.692,16.119,72.691,18.723ZM41.482,5.172c-.229-.54-.43-.974-.6-1.422a.508.508,0,0,0-.555-.368Q38.1,3.362,35.875,3.3a45.489,45.489,0,0,0-9.555.729A42.067,42.067,0,0,0,11.754,9.579c-.658.407-1.3.84-1.934,1.285s-1.243.917-1.863,1.378A68.557,68.557,0,0,1,41.482,5.172ZM62.876,1.736l-.013.117c.314.116.627.234.942.348q.785.284,1.571.563a4.464,4.464,0,0,1,3.173,4.467q.009,5.482,0,10.964c0,.124-.039.269.012.366s.206.263.3.254a1.79,1.79,0,0,0,1.76-1.981q0-6.342,0-12.683a1.959,1.959,0,0,0-1.794-2.218C66.856,1.759,64.862,1.791,62.876,1.736Zm.029,8.889a.927.927,0,0,0-.475-1.213c-.53-.329-1.017-.726-1.561-1.122.647-.423,1.231-.8,1.806-1.188.116-.079.27-.212.274-.325.026-.66.013-1.322.013-2.017A2.871,2.871,0,0,0,60.291,6.2a2.812,2.812,0,0,0,.072,3.117A2.736,2.736,0,0,0,62.9,10.625Zm-.012,8.047c-.032-.224-.044-.362-.073-.5a7.107,7.107,0,0,0-1.811-3.841,2.99,2.99,0,0,0-2.946-.787c.029.052.037.086.058.1a7.015,7.015,0,0,1,3.2,4.8.332.332,0,0,0,.232.215C61.981,18.684,62.411,18.672,62.893,18.672Z" transform="translate(0 0)" fill="#fff"/>
              <path id="Path_440838" data-name="Path 440838" d="M33.525,1.886A68.557,68.557,0,0,0,0,8.955c.62-.461,1.231-.934,1.863-1.378S3.139,6.7,3.8,6.293A42.067,42.067,0,0,1,18.363.746,45.489,45.489,0,0,1,27.918.017Q30.145.076,32.373.1a.508.508,0,0,1,.555.368C33.1.912,33.3,1.346,33.525,1.886Z" transform="translate(7.957 3.286)" fill="#2B9D13"/>
              <path id="Path_440839" data-name="Path 440839" d="M.013,0C2,.055,3.993.022,5.969.2A1.959,1.959,0,0,1,7.763,2.414q0,6.342,0,12.683A1.79,1.79,0,0,1,6,17.079c-.1.009-.243-.143-.3-.254s-.012-.242-.012-.366q0-5.482,0-10.964A4.464,4.464,0,0,0,2.513,1.027Q1.727.749.942.465C.627.351.314.233,0,.117Z" transform="translate(62.863 1.736)" fill="#2B9D13"/>
              <path id="Path_440840" data-name="Path 440840" d="M3.051,5.864A2.736,2.736,0,0,1,.508,4.556,2.812,2.812,0,0,1,.436,1.439,2.871,2.871,0,0,1,3.107,0c0,.695.013,1.357-.013,2.017,0,.113-.159.246-.274.325-.574.39-1.159.764-1.806,1.188.544.4,1.031.793,1.561,1.122A.927.927,0,0,1,3.051,5.864Z" transform="translate(59.854 4.761)" fill="#2B9D13"/>
              <path id="Path_440841" data-name="Path 440841" d="M4.83,5.228c-.482,0-.913.012-1.341-.01A.332.332,0,0,1,3.256,5,7.015,7.015,0,0,0,.058.2C.037.189.029.156,0,.1A2.99,2.99,0,0,1,2.946.891,7.107,7.107,0,0,1,4.757,4.732C4.785,4.866,4.8,5,4.83,5.228Z" transform="translate(58.063 13.444)" fill="#2B9D13"/>
            </g>
          </g>
          <path id="Path_440868" data-name="Path 440868" d="M1.71,0,38.895,1.007v13L0,13.77Z" transform="translate(122.37 62.42) rotate(41)" fill="#fff"/>
          <path id="Path_440869" data-name="Path 440869" d="M10.842-.009v19.1H-.116C-1.925.9,10.419-.18,10.842-.009Z" transform="translate(73.562 76.591)" fill="#fff"/>
          <path id="Path_440870" data-name="Path 440870" d="M-.3-.009v19.1H10.662C12.47.9.126-.18-.3-.009Z" transform="translate(88.782 76.591)" fill="#fff"/>
          <rect id="Rectangle_65033" data-name="Rectangle 65033" width="10.959" height="10.959" transform="translate(73.446 99.717)" fill="#fff"/>
          <rect id="Rectangle_65034" data-name="Rectangle 65034" width="10.959" height="10.959" transform="translate(88.666 99.717)" fill="#fff"/>
        </g>
      </g>
    </g>
    <g id="Group_160039" data-name="Group 160039" transform="translate(-6761.832 -8344)">
      <path id="Path_440882" data-name="Path 440882" d="M-32.395-35.216h-17.36v10.292h16.864v8.184H-49.755V0h-8.556V-43.4h25.916ZM23.529,0H13.8L5.362-14.154-3.069,0h-9.672L.526-22.273-12.059-43.4h9.672l7.76,12.994L13.113-43.4h9.672L10.214-22.3Z" transform="translate(673.833 511.949)"/>
      <path id="Path_440883" data-name="Path 440883" d="M37.541,0l8.773-15.066h6.479V0h8.556V-43.4H43.989a13.929,13.929,0,0,0-10.23,4.216,13.857,13.857,0,0,0-4.216,10.168,13.2,13.2,0,0,0,2.294,7.471,14.36,14.36,0,0,0,6.076,5.177L28.3,0ZM52.793-35.4v12.834h-8.8a5.447,5.447,0,0,1-4.154-1.891A6.5,6.5,0,0,1,38.1-29.016a6.391,6.391,0,0,1,1.736-4.526,5.487,5.487,0,0,1,4.154-1.86Z" transform="translate(673.833 511.949)"/>
      <path id="Path_440884" data-name="Path 440884" d="M-21.886-9.858A4.705,4.705,0,0,0-25.327-8.4,4.705,4.705,0,0,0-26.784-4.96a4.808,4.808,0,0,0,1.457,3.472A4.658,4.658,0,0,0-21.886,0a4.727,4.727,0,0,0,3.5-1.488A4.808,4.808,0,0,0-16.926-4.96,4.705,4.705,0,0,0-18.383-8.4,4.776,4.776,0,0,0-21.886-9.858Zm-3.968-34.72v31h8v-31Z" transform="translate(673.833 511.949)" fill="#2B9D13"/>
    </g>
  </g>
</svg>
