<svg xmlns="http://www.w3.org/2000/svg" width="156.322" height="43.753" viewBox="0 0 156.322 43.753">
  <path id="Path_1" data-name="Path 1" d="M-36.768-23.954v3.245q0,9.015-5.77,14.6t-14.9,5.589A21.987,21.987,0,0,1-73.579-6.855a20.955,20.955,0,0,1-6.4-15.476A21.226,21.226,0,0,1-73.639-37.9a21.291,21.291,0,0,1,15.716-6.371,21.97,21.97,0,0,1,10.758,2.674,19.821,19.821,0,0,1,7.573,7.122l-7.092,4.087a11.161,11.161,0,0,0-4.538-4.207,14.111,14.111,0,0,0-6.761-1.623,13.282,13.282,0,0,0-9.887,3.937,13.593,13.593,0,0,0-3.877,9.947A13.208,13.208,0,0,0-67.81-12.5q3.937,3.876,10.427,3.876a13.914,13.914,0,0,0,7.963-2.134,10.612,10.612,0,0,0,4.3-5.86H-57.863v-7.332Zm5.89-19.473h8.294V-1.356h-8.294Zm57.4,19.473v3.245q0,9.015-5.77,14.6T5.844-.515A21.987,21.987,0,0,1-10.293-6.855a20.955,20.955,0,0,1-6.4-15.476A21.226,21.226,0,0,1-10.353-37.9,21.291,21.291,0,0,1,5.363-44.268a21.97,21.97,0,0,1,10.758,2.674,19.821,19.821,0,0,1,7.573,7.122L16.6-30.385a11.161,11.161,0,0,0-4.538-4.207A14.111,14.111,0,0,0,5.3-36.215a13.282,13.282,0,0,0-9.887,3.937A13.593,13.593,0,0,0-8.46-22.331,13.208,13.208,0,0,0-4.523-12.5Q-.587-8.628,5.9-8.628a13.914,13.914,0,0,0,7.963-2.134,10.612,10.612,0,0,0,4.3-5.86H5.423v-7.332Zm5.89-19.473H40.7V-1.356H32.408Zm43.934,0v7.933H64.983V-1.356H56.689V-35.493H45.39v-7.933Z" transform="translate(79.98 44.268)" fill="#fbfcff"/>
</svg>
